<svg width="143" height="212" viewBox="0 0 143 212" fill="none" xmlns="http://www.w3.org/2000/svg">
<path d="M2.07246 212V177.557L71.648 105.109C85.6618 90.6592 92.6687 78.3866 92.6687 68.2913C92.6687 61.7591 90.695 56.5135 86.7474 52.5546C82.7999 48.3978 77.372 46.3193 70.4638 46.3193C56.6473 46.3193 46.4824 53.8413 39.9689 68.8852L0 45.4286C6.31608 30.5826 15.7902 19.2997 28.4224 11.5798C41.0545 3.85995 54.8709 0 69.8716 0C89.2146 0 105.696 6.03735 119.315 18.112C133.131 29.9888 140.039 46.0224 140.039 66.2129C140.039 88.1849 129.282 109.959 107.768 131.535L73.4244 166.275H143V212H2.07246Z" fill="#E0E0E0"/>
</svg>
