<svg width="148" height="212" viewBox="0 0 148 212" fill="none" xmlns="http://www.w3.org/2000/svg">
<path d="M103.896 84.3249C117.117 88.8777 127.773 96.3007 135.864 106.594C143.955 116.689 148 128.665 148 142.521C148 164.295 140.699 181.318 126.096 193.591C111.493 205.864 93.6347 212 72.52 212C56.1413 212 41.44 208.239 28.416 200.717C15.5893 193.195 6.11733 182.11 0 167.462L40.848 143.709C45.9787 158.357 56.536 165.681 72.52 165.681C81.7947 165.681 88.8 163.503 93.536 159.148C98.272 154.794 100.64 149.251 100.64 142.521C100.64 135.791 98.272 130.248 93.536 125.894C88.8 121.539 81.7947 119.361 72.52 119.361H62.752L44.696 92.3417L82.288 44.5378H6.512V0H139.712V38.5994L103.896 84.3249Z" fill="#E0E0E0"/>
</svg>
