<svg width="26" height="26" viewBox="0 0 26 26" fill="none" xmlns="http://www.w3.org/2000/svg">
<path d="M22.4965 25.5H17.4237L17.438 17.2091H20.1478C20.6898 17.2091 21.1461 16.8036 21.2099 16.2654L21.5649 13.2706C21.6404 12.6344 21.1433 12.0751 20.5028 12.0751H17.4229V10.0698C17.4229 9.52315 17.505 9.20275 17.6668 9.01065C17.8122 8.83785 18.1196 8.65952 18.8675 8.65952H18.8678L20.3764 8.65882H20.3765C20.9668 8.65846 21.4454 8.17981 21.4454 7.58926V5.06398C21.4454 4.47322 20.9664 3.99442 20.3758 3.99442H17.9176C16.3182 3.99442 14.9195 4.48422 13.9193 5.47287C12.9175 6.46305 12.3708 7.89873 12.3708 9.68121V12.075H10.4614C9.86911 12.075 9.38955 12.5563 9.39182 13.1486V13.1487L9.40339 16.1435C9.40566 16.7326 9.88378 17.2089 10.4729 17.2089H12.3858L12.3716 25.4999H3.50358C1.84472 25.4999 0.5 24.1552 0.5 22.4963V3.50355C0.5 1.84472 1.84478 0.5 3.50358 0.5H22.4964C24.1552 0.5 25.4999 1.84471 25.5 3.50355V22.4965C25.5 24.1553 24.1553 25.5 22.4965 25.5Z" stroke="url(#paint0_linear)"/>
<defs>
<linearGradient id="paint0_linear" x1="1.36564" y1="9.76891" x2="21.0803" y2="5.97013" gradientUnits="userSpaceOnUse">
<stop stop-color="#00009A"/>
<stop offset="0.794371" stop-color="#EB3626"/>
<stop offset="1" stop-color="#EB3423"/>
</linearGradient>
</defs>
</svg>
