<svg width="16" height="17" viewBox="0 0 16 17" fill="none" xmlns="http://www.w3.org/2000/svg">
<path fill-rule="evenodd" clip-rule="evenodd" d="M3 0.00390625H13C14.6569 0.00390625 16 1.34705 16 3.00391V13.0039C16 14.6608 14.6569 16.0039 13 16.0039H3C1.34315 16.0039 0 14.6608 0 13.0039V3.00391C0 1.34705 1.34315 0.00390625 3 0.00390625ZM11 10.4654H12.5556L13 8.38852H11V7.00391C10.8945 6.41732 11.0596 5.99644 11.8889 6.08083H13V4.00391C12.8118 4.062 12.1663 4.00391 11.4444 4.00391C9.84705 4.00391 8.7735 4.99803 8.77778 6.77314V8.38852H7V10.4654H8.77778V16.0039H11V10.4654Z" fill="white"/>
</svg>
