<svg width="16" height="17" viewBox="0 0 16 17" fill="none" xmlns="http://www.w3.org/2000/svg">
<path d="M11.2335 0.998047H4.76649C2.13823 0.998047 0 3.13628 0 5.76453V12.2316C0 14.8598 2.13823 16.998 4.76649 16.998H11.2335C13.8618 16.998 16 14.8598 16 12.2316V5.76453C16 3.13628 13.8617 0.998047 11.2335 0.998047ZM14.3904 12.2316C14.3904 13.975 12.977 15.3884 11.2335 15.3884H4.76649C3.023 15.3884 1.6096 13.975 1.6096 12.2316V5.76453C1.6096 4.02102 3.023 2.60765 4.76649 2.60765H11.2335C12.977 2.60765 14.3904 4.02102 14.3904 5.76453V12.2316Z" fill="url(#paint0_linear)"/>
<path d="M7.99999 4.85986C5.7182 4.85986 3.86182 6.71624 3.86182 8.998C3.86182 11.2798 5.7182 13.1362 7.99999 13.1362C10.2818 13.1362 12.1382 11.2798 12.1382 8.998C12.1382 6.71621 10.2818 4.85986 7.99999 4.85986ZM7.99999 11.5266C6.60348 11.5266 5.47142 10.3945 5.47142 8.99803C5.47142 7.60153 6.60351 6.46946 7.99999 6.46946C9.39649 6.46946 10.5286 7.60153 10.5286 8.99803C10.5286 10.3945 9.39646 11.5266 7.99999 11.5266Z" fill="url(#paint1_linear)"/>
<path d="M12.1461 5.88259C12.6938 5.88259 13.1377 5.43864 13.1377 4.891C13.1377 4.34336 12.6938 3.89941 12.1461 3.89941C11.5985 3.89941 11.1545 4.34336 11.1545 4.891C11.1545 5.43864 11.5985 5.88259 12.1461 5.88259Z" fill="url(#paint2_linear)"/>
<defs>
<linearGradient id="paint0_linear" x1="-2.31803e-07" y1="2.30417" x2="18.1111" y2="5.36543" gradientUnits="userSpaceOnUse">
<stop stop-color="#225AA4"/>
<stop offset="0.270517" stop-color="#2D4F8A"/>
<stop offset="0.794371" stop-color="#EB3626"/>
<stop offset="1" stop-color="#EB3423"/>
</linearGradient>
<linearGradient id="paint1_linear" x1="3.86182" y1="5.53548" x2="13.2302" y2="7.11899" gradientUnits="userSpaceOnUse">
<stop stop-color="#225AA4"/>
<stop offset="0.270517" stop-color="#2D4F8A"/>
<stop offset="0.794371" stop-color="#EB3626"/>
<stop offset="1" stop-color="#EB3423"/>
</linearGradient>
<linearGradient id="paint2_linear" x1="11.1545" y1="4.06131" x2="13.3994" y2="4.44075" gradientUnits="userSpaceOnUse">
<stop stop-color="#225AA4"/>
<stop offset="0.270517" stop-color="#2D4F8A"/>
<stop offset="0.794371" stop-color="#EB3626"/>
<stop offset="1" stop-color="#EB3423"/>
</linearGradient>
</defs>
</svg>
