<svg width="26" height="26" viewBox="0 0 26 26" fill="none" xmlns="http://www.w3.org/2000/svg">
<path d="M18.2545 0H7.74554C3.47463 0 0 3.47463 0 7.74554V18.2545C0 22.5254 3.47463 26 7.74554 26H18.2545C22.5254 26 26 22.5254 26 18.2545V7.74554C26 3.47463 22.5253 0 18.2545 0ZM23.3844 18.2545C23.3844 21.0876 21.0876 23.3844 18.2545 23.3844H7.74554C4.91238 23.3844 2.6156 21.0876 2.6156 18.2545V7.74554C2.6156 4.91233 4.91238 2.6156 7.74554 2.6156H18.2545C21.0876 2.6156 23.3844 4.91233 23.3844 7.74554V18.2545Z" fill="url(#paint0_linear)"/>
<path d="M12.9989 6.27539C9.29103 6.27539 6.27441 9.29201 6.27441 12.9999C6.27441 16.7077 9.29103 19.7244 12.9989 19.7244C16.7068 19.7244 19.7235 16.7078 19.7235 12.9999C19.7235 9.29196 16.7068 6.27539 12.9989 6.27539ZM12.9989 17.1088C10.7296 17.1088 8.89001 15.2692 8.89001 12.9999C8.89001 10.7306 10.7297 8.89099 12.9989 8.89099C15.2683 8.89099 17.1079 10.7306 17.1079 12.9999C17.1079 15.2692 15.2682 17.1088 12.9989 17.1088Z" fill="url(#paint1_linear)"/>
<defs>
<linearGradient id="paint0_linear" x1="-3.76679e-07" y1="2.12245" x2="29.4305" y2="7.097" gradientUnits="userSpaceOnUse">
<stop stop-color="#225AA4"/>
<stop offset="0.270517" stop-color="#2D4F8A"/>
<stop offset="0.794371" stop-color="#EB3626"/>
<stop offset="1" stop-color="#EB3423"/>
</linearGradient>
<linearGradient id="paint1_linear" x1="6.27441" y1="7.37327" x2="21.498" y2="9.94647" gradientUnits="userSpaceOnUse">
<stop stop-color="#225AA4"/>
<stop offset="0.270517" stop-color="#2D4F8A"/>
<stop offset="0.794371" stop-color="#EB3626"/>
<stop offset="1" stop-color="#EB3423"/>
</linearGradient>
</defs>
</svg>
