<svg width="26" height="26" viewBox="0 0 26 26" fill="none" xmlns="http://www.w3.org/2000/svg">
<circle cx="13" cy="13" r="13" fill="url(#paint0_linear)"/>
<path d="M15.4251 7H10.5749C8.60368 7 7 8.60368 7 10.5749V15.4251C7 17.3963 8.60368 19 10.5749 19H15.4251C17.3963 19 19 17.3963 19 15.4251V10.5749C19 8.60368 17.3963 7 15.4251 7ZM17.7928 15.4251C17.7928 16.7327 16.7327 17.7928 15.4251 17.7928H10.5749C9.26725 17.7928 8.2072 16.7327 8.2072 15.4251V10.5749C8.2072 9.26723 9.26725 8.2072 10.5749 8.2072H15.4251C16.7327 8.2072 17.7928 9.26723 17.7928 10.5749V15.4251Z" fill="white"/>
<path d="M13 9.89633C11.2886 9.89633 9.89636 11.2886 9.89636 12.9999C9.89636 14.7113 11.2886 16.1036 13 16.1036C14.7113 16.1036 16.1036 14.7113 16.1036 12.9999C16.1036 11.2886 14.7113 9.89633 13 9.89633ZM13 14.8964C11.9526 14.8964 11.1036 14.0473 11.1036 13C11.1036 11.9526 11.9526 11.1035 13 11.1035C14.0474 11.1035 14.8964 11.9526 14.8964 13C14.8964 14.0473 14.0473 14.8964 13 14.8964Z" fill="white"/>
<path d="M16.1098 10.6634C16.5205 10.6634 16.8535 10.3304 16.8535 9.91972C16.8535 9.50899 16.5205 9.17603 16.1098 9.17603C15.6991 9.17603 15.3661 9.50899 15.3661 9.91972C15.3661 10.3304 15.6991 10.6634 16.1098 10.6634Z" fill="white"/>
<defs>
<linearGradient id="paint0_linear" x1="1.36564" y1="9.76891" x2="21.0803" y2="5.97013" gradientUnits="userSpaceOnUse">
<stop stop-color="#00009A"/>
<stop offset="0.794371" stop-color="#EB3626"/>
<stop offset="1" stop-color="#EB3423"/>
</linearGradient>
</defs>
</svg>
