<svg width="205" height="28" viewBox="0 0 205 28" fill="none" xmlns="http://www.w3.org/2000/svg">
<g clip-path="url(#clip0)">
<path d="M189.424 19.528C189.866 19.528 190.224 19.1938 190.224 18.7815C190.224 18.3692 189.866 18.035 189.424 18.035C188.982 18.035 188.624 18.3692 188.624 18.7815C188.624 19.1938 188.982 19.528 189.424 19.528Z" fill="white"/>
<path d="M106.6 0.220896C106.742 0.101634 106.912 0.0397949 107.116 0.0397949H125.121C125.576 0.0397949 125.808 0.265067 125.808 0.720028C125.808 1.14849 125.58 1.36051 125.121 1.36051H107.116C106.917 1.36051 106.747 1.30309 106.6 1.17941C106.458 1.06015 106.387 0.905547 106.387 0.720028C106.382 0.508008 106.453 0.340158 106.6 0.220896Z" fill="white"/>
<path d="M56.5997 0.119262C56.6849 0.0662565 56.8127 0.0397539 56.9879 0.0397539C57.272 0.0397539 57.4708 0.132513 57.5892 0.318031L69.0512 17.3725V0.680234C69.0512 0.494715 69.1175 0.3357 69.2406 0.19877C69.3684 0.0662565 69.5341 0 69.7329 0C69.9318 0 70.1022 0.0662565 70.249 0.19877C70.391 0.331283 70.462 0.494715 70.462 0.680234V19.6517C70.462 19.9962 70.2916 20.2127 69.946 20.2922C69.5483 20.2922 69.2784 20.1994 69.1317 20.0139L56.3866 1.03802C56.131 0.666982 56.202 0.357785 56.5997 0.119262Z" fill="white"/>
<path d="M45.2231 27.7967C45.0953 27.9292 44.9296 27.9955 44.7307 27.9955H29.1924C28.9935 27.9955 28.8231 27.9292 28.6811 27.7967C28.539 27.6642 28.468 27.5052 28.468 27.3153V15.738C28.468 15.5525 28.539 15.3935 28.6811 15.2566C28.8231 15.1241 28.9935 15.0578 29.1924 15.0578H40.8816C41.0805 15.0578 41.2509 15.1241 41.3977 15.2566C41.5397 15.3891 41.6107 15.5525 41.6107 15.738C41.6107 15.9236 41.5397 16.0781 41.3977 16.1974C41.2557 16.3167 41.0805 16.3785 40.8816 16.3785H29.8741V26.6792H44.7307C45.1852 26.6792 45.4172 26.8912 45.4172 27.3197C45.4172 27.5052 45.3509 27.6642 45.2231 27.7967Z" fill="white"/>
<path d="M42.6333 23.4857C42.7753 23.6182 42.8463 23.7817 42.8463 23.9672C42.8463 24.1527 42.7753 24.3073 42.6333 24.4266C42.4913 24.5458 42.3161 24.6077 42.1172 24.6077H32.8283C32.3738 24.6077 32.1418 24.3957 32.1418 23.9672V18.5739C32.1418 18.1189 32.3691 17.8937 32.8283 17.8937C33.0272 17.8937 33.1976 17.9555 33.3444 18.0748C33.4864 18.194 33.5574 18.3619 33.5574 18.5739V23.287H42.1172C42.3208 23.287 42.4913 23.3532 42.6333 23.4857Z" fill="white"/>
<path d="M33.5574 4.71311V9.42615C33.5574 9.63818 33.4864 9.80603 33.3444 9.92529C33.2024 10.0445 33.0272 10.1064 32.8283 10.1064C32.3738 10.1064 32.1418 9.88112 32.1418 9.42615V4.03287C32.1418 3.60442 32.3691 3.3924 32.8283 3.3924H42.1172C42.3161 3.3924 42.4865 3.45423 42.6333 3.5735C42.7753 3.69276 42.8463 3.84736 42.8463 4.03287C42.8463 4.21839 42.7753 4.37741 42.6333 4.51434C42.4913 4.64685 42.3161 4.71311 42.1172 4.71311H33.5574Z" fill="white"/>
<path d="M44.7307 1.3163H29.8741V11.6214H40.8769C41.0758 11.6214 41.2462 11.6788 41.393 11.7981C41.535 11.9173 41.606 12.0719 41.606 12.2575C41.606 12.443 41.535 12.602 41.393 12.7389C41.2509 12.8714 41.0758 12.9377 40.8769 12.9377H29.1924C28.9935 12.9377 28.8231 12.8714 28.6811 12.7389C28.539 12.6064 28.468 12.443 28.468 12.2575V0.680234C28.468 0.494715 28.539 0.331283 28.6811 0.19877C28.8184 0.0662565 28.9935 0 29.1924 0H44.7355C44.9343 0 45.1 0.0662565 45.2278 0.19877C45.3557 0.331283 45.4172 0.490298 45.4172 0.680234C45.4172 1.10428 45.19 1.3163 44.7307 1.3163Z" fill="white"/>
<path d="M56.5904 25.363C56.5904 25.7914 56.3489 26.0035 55.8613 26.0035C55.4068 26.0035 55.1748 25.7914 55.1748 25.363V14.0596C55.1748 13.6091 55.4021 13.3794 55.8613 13.3794C56.3489 13.3794 56.5904 13.6047 56.5904 14.0596V25.363Z" fill="white"/>
<path d="M70.1164 27.9206C69.946 27.9736 69.8181 28.0001 69.7329 28.0001C69.4772 28.0001 69.2784 27.8941 69.1364 27.6821L52.8216 2.99489V27.3596C52.8216 27.5451 52.7506 27.6997 52.6085 27.819C52.4665 27.9383 52.2913 28.0001 52.0925 28.0001C51.638 28.0001 51.406 27.7881 51.406 27.3596V0.680333C51.406 0.335799 51.5764 0.119361 51.9173 0.0398534C51.9457 0.0398534 51.9741 0.0354363 52.0025 0.022185C52.0309 0.0089337 52.0594 0.0045166 52.0878 0.0045166C52.3434 0.0045166 52.5423 0.110527 52.689 0.322548L70.3247 27.0018C70.5898 27.3729 70.5188 27.6776 70.1164 27.9206Z" fill="white"/>
<path d="M74.2305 27.3595C74.2305 27.7879 73.9891 27.9999 73.5014 27.9999C73.0469 27.9999 72.8149 27.7879 72.8149 27.3595V2.91522C72.8149 2.7297 72.8812 2.57069 73.0043 2.43375C73.1321 2.30124 73.2979 2.23499 73.4967 2.23499C73.724 2.23499 73.9039 2.30124 74.0317 2.43375C74.1595 2.56627 74.2258 2.72528 74.2258 2.91522V27.3595H74.2305Z" fill="white"/>
<path d="M116.381 27.2712C116.381 27.4567 116.31 27.6113 116.168 27.7305C116.026 27.8498 115.856 27.9116 115.652 27.9116C115.198 27.9116 114.966 27.6996 114.966 27.2712V4.87204H107.107C106.619 4.87204 106.377 4.66002 106.377 4.23156C106.377 4.04605 106.444 3.88703 106.572 3.7501C106.699 3.61759 106.879 3.55133 107.107 3.55133H115.647C115.846 3.55133 116.017 3.61759 116.163 3.7501C116.306 3.88261 116.377 4.04163 116.377 4.23156V27.2712H116.381Z" fill="white"/>
<path d="M127.469 4.87204H120.235V27.3595C120.235 27.788 120.008 28 119.548 28C119.35 28 119.179 27.9381 119.032 27.8189C118.89 27.6996 118.819 27.545 118.819 27.3595V4.23156C118.819 4.04605 118.89 3.88703 119.032 3.7501C119.174 3.61759 119.345 3.55133 119.548 3.55133H127.469C127.696 3.55133 127.876 3.61759 128.004 3.7501C128.132 3.88261 128.198 4.04163 128.198 4.23156C128.198 4.66002 127.957 4.87204 127.469 4.87204Z" fill="white"/>
<path d="M151.26 27.7967C151.132 27.9292 150.966 27.9955 150.767 27.9955H135.224C135.025 27.9955 134.855 27.9292 134.713 27.7967C134.571 27.6642 134.5 27.5052 134.5 27.3153V15.738C134.5 15.5525 134.571 15.3935 134.713 15.2566C134.855 15.1241 135.025 15.0578 135.224 15.0578H146.913C147.112 15.0578 147.283 15.1241 147.429 15.2566C147.571 15.3891 147.642 15.5525 147.642 15.738C147.642 15.9236 147.571 16.0781 147.429 16.1974C147.287 16.3167 147.112 16.3785 146.913 16.3785H135.911V26.6792H150.767C151.222 26.6792 151.454 26.8912 151.454 27.3197C151.449 27.5052 151.387 27.6642 151.26 27.7967Z" fill="white"/>
<path d="M148.67 23.4857C148.812 23.6182 148.883 23.7817 148.883 23.9672C148.883 24.1527 148.812 24.3073 148.67 24.4266C148.528 24.5458 148.353 24.6077 148.154 24.6077H138.865C138.41 24.6077 138.178 24.3957 138.178 23.9672V18.5739C138.178 18.1189 138.406 17.8937 138.865 17.8937C139.064 17.8937 139.234 17.9555 139.381 18.0748C139.523 18.194 139.594 18.3619 139.594 18.5739V23.287H148.154C148.353 23.287 148.523 23.3532 148.67 23.4857Z" fill="white"/>
<path d="M139.594 4.71311V9.42615C139.594 9.63818 139.523 9.80603 139.381 9.92529C139.239 10.0445 139.064 10.1064 138.865 10.1064C138.41 10.1064 138.178 9.88112 138.178 9.42615V4.03287C138.178 3.60442 138.406 3.3924 138.865 3.3924H148.154C148.353 3.3924 148.523 3.45423 148.67 3.5735C148.812 3.69276 148.883 3.84736 148.883 4.03287C148.883 4.21839 148.812 4.37741 148.67 4.51434C148.528 4.64685 148.353 4.71311 148.154 4.71311H139.594Z" fill="white"/>
<path d="M150.767 1.3163H135.911V11.6214H146.913C147.112 11.6214 147.283 11.6788 147.429 11.7981C147.571 11.9173 147.642 12.0719 147.642 12.2575C147.642 12.443 147.571 12.602 147.429 12.7389C147.287 12.8714 147.112 12.9377 146.913 12.9377H135.224C135.025 12.9377 134.855 12.8714 134.713 12.7389C134.571 12.6064 134.5 12.443 134.5 12.2575V0.680234C134.5 0.494715 134.571 0.331283 134.713 0.19877C134.855 0.0662565 135.025 0 135.224 0H150.767C150.966 0 151.132 0.0662565 151.26 0.19877C151.387 0.331283 151.449 0.490298 151.449 0.680234C151.449 1.10428 151.222 1.3163 150.767 1.3163Z" fill="white"/>
<path d="M160.042 27.1784C160.042 27.6333 159.815 27.8586 159.355 27.8586C158.868 27.8586 158.626 27.6333 158.626 27.1784V3.9356C158.626 3.75009 158.688 3.59107 158.82 3.45414C158.948 3.32163 159.128 3.25537 159.355 3.25537H167.873C168.9 3.25537 169.852 3.34371 170.718 3.51598C171.589 3.68825 172.328 3.98861 172.943 4.41265C173.559 4.84111 174.037 5.4065 174.378 6.10882C174.718 6.81555 174.894 7.69897 174.894 8.76349C174.894 12.518 172.64 14.3953 168.128 14.3953H166.803C166.604 14.3953 166.433 14.329 166.287 14.1965C166.144 14.064 166.073 13.905 166.073 13.7151C166.073 13.5295 166.144 13.3749 166.287 13.2557C166.429 13.1364 166.599 13.0746 166.803 13.0746H168.128C169.78 13.0746 171.087 12.7698 172.044 12.1558C173 11.5419 173.478 10.4111 173.478 8.75908C173.478 7.90658 173.341 7.20868 173.071 6.66096C172.801 6.11323 172.422 5.68919 171.935 5.38441C171.447 5.07963 170.86 4.8632 170.159 4.74393C169.459 4.62467 168.696 4.56283 167.868 4.56283H160.032V27.1784H160.042Z" fill="white"/>
<path d="M163.806 27.1784C163.806 27.6333 163.578 27.8586 163.119 27.8586C162.92 27.8586 162.745 27.8012 162.603 27.6775C162.461 27.5582 162.39 27.3904 162.39 27.1784V20.2303C162.39 20.0447 162.461 19.8901 162.603 19.7709C162.745 19.6516 162.916 19.5898 163.119 19.5898C163.574 19.5898 163.806 19.8018 163.806 20.2303V27.1784Z" fill="white"/>
<path d="M173.346 27.4125C173.308 27.5716 173.213 27.6864 173.071 27.7924C172.957 27.8719 172.815 27.9117 172.645 27.9117C172.418 27.9117 172.233 27.8057 172.091 27.5936L162.357 14.1657C162.101 13.7946 162.153 13.4192 162.603 13.1806C162.939 13.0128 163.375 13.1365 163.555 13.4059L173.246 26.8737C173.355 27.0062 173.379 27.2491 173.346 27.4125Z" fill="white"/>
<path d="M177.422 26.8205C177.678 27.1915 177.621 27.5007 177.251 27.7392C177.138 27.8187 177.01 27.8585 176.868 27.8585C176.612 27.8585 176.409 27.7657 176.267 27.5802L168.644 17.1161C168.474 16.9306 168.46 16.7053 168.602 16.4359C168.744 16.1974 168.957 16.0737 169.246 16.0737C170.443 16.0737 171.542 15.9014 172.541 15.5569C173.54 15.2123 174.397 14.7176 175.111 14.0771C175.826 13.4367 176.376 12.6681 176.759 11.7582C177.143 10.8527 177.337 9.8279 177.337 8.68387C177.337 6.12637 176.65 4.28444 175.282 3.15366C173.909 2.02288 171.902 1.45749 169.246 1.45749H159.313C158.858 1.45749 158.626 1.23222 158.626 0.777259C158.626 0.353218 158.853 0.13678 159.313 0.13678H169.246C172.271 0.13678 174.61 0.82143 176.267 2.19515C177.924 3.56887 178.752 5.72883 178.752 8.68387C178.752 11.1354 178.018 13.1098 176.546 14.616C175.074 16.1223 173.057 17.0322 170.491 17.3502L177.422 26.8205Z" fill="white"/>
<path d="M0.3077 8.04803C0.492342 6.3872 1.00366 5.17249 2.73645 4.16981C4.46925 3.16713 6.1547 3.0567 8.28518 3.0567C11.3768 3.0567 12.8065 3.93129 13.1948 4.13447C15.3347 5.2255 16.3621 6.9305 16.2769 9.24506C16.2201 9.6426 15.9786 9.84579 15.5478 9.84579C15.3205 9.84579 15.1406 9.77953 15.0128 9.64702C14.885 9.5145 14.8329 9.35549 14.8613 9.16555C14.9181 8.18054 14.6908 7.31037 13.957 6.36069C13.2279 5.4066 11.2821 4.39508 8.11001 4.373C4.93795 4.35091 3.71648 4.89422 2.73645 5.81297C1.75643 6.73173 1.37294 8.54274 2.05943 10.1064C2.74592 11.67 4.45031 12.6506 5.20782 13.0614C5.96532 13.4766 6.81278 13.8653 7.75493 14.2408L8.39881 14.5191C9.5114 14.974 10.534 15.4025 11.462 15.8177C12.3899 16.2329 13.1806 16.6658 13.8386 17.1163C14.582 17.5713 15.1075 18.0748 15.4199 18.6358C15.8176 19.2763 15.9171 19.9433 15.7182 20.6323C15.633 20.9504 15.401 21.1138 15.0317 21.1138C14.7477 21.0608 14.5441 20.9592 14.4304 20.8134C14.3168 20.6677 14.2884 20.4998 14.3452 20.3143C14.5725 19.5148 14.1038 18.7816 12.9344 18.119C11.765 17.452 10.0653 16.6525 7.84015 15.7205L7.19627 15.482C6.39615 15.1375 5.56763 14.7576 4.7107 14.3424C3.85377 13.9316 3.09627 13.4192 2.44292 12.8052C0.880564 11.4713 0.165668 9.88554 0.3077 8.04803Z" fill="white"/>
<path d="M10.6711 27.3375C10.6711 27.523 10.6001 27.6776 10.4581 27.7969C10.316 27.9162 10.1598 27.978 9.98937 27.978H9.94203C8.48856 27.8985 7.12505 27.607 5.85623 27.099C4.58741 26.591 3.49376 25.8887 2.58002 24.9832C1.69468 24.1042 1.03187 23.1192 0.591567 22.0282C0.146532 20.9371 -0.042844 19.7931 0.0139689 18.5917C0.0707818 18.1676 0.32644 17.9512 0.785678 17.9512C0.984523 17.9777 1.15023 18.0528 1.27806 18.172C1.40589 18.2913 1.45796 18.4591 1.42956 18.6712C1.34434 20.7472 2.07344 22.545 3.61212 24.0644C4.41224 24.8374 5.35438 25.447 6.43856 25.902C7.52274 26.3569 8.70635 26.6087 9.99411 26.6617C10.2214 26.6617 10.4013 26.728 10.5291 26.8605C10.6475 26.993 10.6995 27.152 10.6711 27.3375Z" fill="white"/>
<path d="M19.9174 20.4822C19.7612 21.242 18.98 22.8454 17.1999 23.8525C15.4197 24.8596 12.3566 24.9612 11.2629 24.9567C9.50173 24.9479 7.58429 24.3339 6.27286 23.5035C4.96143 22.6731 4.49272 21.8736 4.20392 21.2331C4.14711 21.0741 4.08083 20.5794 4.57794 20.363C5.07505 20.1465 5.38279 20.4469 5.52956 20.7119C5.75681 21.2464 6.08822 21.6837 6.51431 22.0282C6.94514 22.3727 7.42805 22.6599 7.97251 22.8851C8.51223 23.1104 10.0746 23.5698 11.4428 23.5698C12.8111 23.5698 15.0315 23.6316 16.7075 22.5803C18.3835 21.5291 18.6723 20.2658 18.6202 19.1703C18.5681 18.0793 18.2415 17.6464 17.9006 17.271C17.4745 16.816 16.788 16.3301 15.8458 15.8133C14.9037 15.2965 13.6065 14.6914 11.9494 13.9979C10.7232 13.49 9.62956 13.0129 8.6732 12.5579C7.71685 12.1074 6.912 11.6524 6.25392 11.2019C4.56847 10.0314 3.85831 8.79016 4.11397 7.48711C4.17078 7.24859 4.39803 6.86872 4.97089 6.96589C5.54376 7.06307 5.55323 7.54011 5.52956 7.72563C5.44434 8.18059 5.57217 8.62231 5.91304 9.06402C6.25392 9.50131 6.75577 9.92977 7.41385 10.3406C8.0672 10.7513 8.84838 11.1666 9.74792 11.5773C10.6475 11.9881 11.5801 12.3945 12.5507 12.7965C14.3498 13.5695 15.7417 14.2364 16.7264 14.793C17.7112 15.354 18.445 15.8973 18.9327 16.4317C19.5008 17.0192 19.8369 17.6023 19.9364 18.1897C20.0358 18.7816 20.0784 19.7225 19.9174 20.4822Z" fill="white"/>
<path d="M20.0455 9.40837C19.9886 9.83241 19.7472 10.0489 19.3164 10.0489C18.8003 9.99585 18.5731 9.75732 18.6299 9.32886C18.6867 8.29085 18.5447 7.30583 18.199 6.37382C17.8582 5.44182 17.3421 4.62907 16.6604 3.93558C15.9171 3.16259 14.9844 2.55745 13.8576 2.12016C12.7308 1.68286 11.4667 1.42225 10.0701 1.34275C9.87121 1.34275 9.70077 1.27649 9.55401 1.14398C9.41197 1.01146 9.35516 0.852449 9.38357 0.662513C9.38357 0.476995 9.45458 0.322396 9.59662 0.203135C9.73865 0.0838731 9.90909 0.0220337 10.1079 0.0220337C13.3605 0.181049 15.9029 1.19257 17.7303 3.05658C19.4158 4.78808 20.1875 6.90388 20.0455 9.40837Z" fill="white"/>
<path d="M82.44 8.04778C82.6247 6.38695 83.136 5.17225 84.8688 4.16957C86.6016 3.16688 88.287 3.05646 90.4175 3.05646C93.5091 3.05646 94.9389 3.93104 95.3271 4.13423C97.467 5.22525 98.4944 6.93025 98.4092 9.24481C98.3524 9.64235 98.1109 9.84554 97.6801 9.84554C97.4528 9.84554 97.2729 9.77928 97.1451 9.64677C97.0173 9.51426 96.9652 9.35524 96.9936 9.16531C97.0504 8.18029 96.8232 7.31012 96.0893 6.36045C95.3602 5.40635 93.4144 4.39484 90.2423 4.37275C87.0655 4.35067 85.8488 4.89397 84.8688 5.81273C83.8887 6.72707 83.5053 8.5425 84.1918 10.1061C84.8782 11.6698 86.5826 12.6504 87.3401 13.0612C88.0976 13.4764 88.9451 13.8651 89.8872 14.2406L90.5311 14.5188C91.6437 14.9738 92.6663 15.4023 93.5943 15.8175C94.5222 16.2327 95.3129 16.6655 95.971 17.1161C96.7143 17.571 97.2398 18.0746 97.5523 18.6356C97.9499 19.276 98.0494 19.943 97.8505 20.6321C97.7653 20.9501 97.5333 21.1136 97.164 21.1136C96.88 21.0606 96.6764 20.959 96.5628 20.8132C96.4491 20.6674 96.4207 20.4996 96.4775 20.3141C96.7048 19.5146 96.2361 18.7813 95.0667 18.1188C93.8973 17.4518 92.1976 16.6523 89.9725 15.7203L89.3286 15.4818C88.5285 15.1372 87.6999 14.7574 86.843 14.3421C85.9861 13.9314 85.2286 13.419 84.5752 12.805C83.0129 11.471 82.298 9.88529 82.44 8.04778Z" fill="white"/>
<path d="M92.799 27.3373C92.799 27.5228 92.728 27.6774 92.5859 27.7966C92.4439 27.9159 92.2877 27.9778 92.1172 27.9778H92.0746C90.6211 27.8982 89.2576 27.6067 87.9888 27.0987C86.72 26.5908 85.6263 25.8885 84.7126 24.983C83.8273 24.104 83.1644 23.1189 82.7241 22.0279C82.2791 20.9369 82.0897 19.7929 82.1465 18.5914C82.2034 18.1674 82.459 17.9509 82.9182 17.9509C83.1171 17.9774 83.2828 18.0525 83.4106 18.1718C83.5385 18.291 83.5905 18.4589 83.5621 18.6709C83.4769 20.747 84.206 22.5447 85.7447 24.0642C86.5448 24.8372 87.487 25.4468 88.5711 25.9017C89.6553 26.3567 90.8389 26.6084 92.1267 26.6615C92.3539 26.6615 92.5338 26.7277 92.6617 26.8602C92.78 26.9927 92.8321 27.1518 92.799 27.3373Z" fill="white"/>
<path d="M102.05 20.4821C101.894 21.2418 101.112 22.8452 99.3324 23.8523C97.5522 24.8594 94.4891 24.961 93.3954 24.9566C91.6342 24.9478 89.7168 24.3338 88.4053 23.5034C87.0939 22.673 86.6252 21.8735 86.3364 21.233C86.2796 21.074 86.2133 20.5793 86.7104 20.3628C87.2075 20.1464 87.5153 20.4468 87.662 20.7118C87.8893 21.2463 88.2207 21.6835 88.6468 22.0281C89.0776 22.3726 89.5605 22.6597 90.105 22.885C90.6447 23.1103 92.2071 23.5697 93.5753 23.5697C94.9436 23.5697 97.3913 23.5917 98.9205 22.5537C100.45 21.5157 100.809 20.2612 100.757 19.1702C100.705 18.0792 100.379 17.6463 100.038 17.2709C99.6117 16.8159 98.9252 16.33 97.9831 15.8132C97.0409 15.2964 95.7437 14.6913 94.0866 13.9978C92.8604 13.4898 91.7668 13.0128 90.8104 12.5578C89.8541 12.1073 89.0492 11.6523 88.3911 11.2018C86.7057 10.0312 85.9955 8.79003 86.2512 7.48699C86.308 7.24846 86.5352 6.86859 87.1081 6.96577C87.681 7.06295 87.6904 7.53999 87.6668 7.72551C87.5815 8.18047 87.7094 8.62218 88.0503 9.06389C88.3911 9.50119 88.893 9.92964 89.5511 10.3404C90.2044 10.7512 90.9856 11.1664 91.8851 11.5772C92.7847 11.988 93.7173 12.3944 94.6879 12.7963C96.487 13.5693 97.8789 14.2363 98.8637 14.7929C99.8484 15.3538 100.582 15.8971 101.07 16.4316C101.638 17.0191 101.974 17.6021 102.074 18.1896C102.168 18.7815 102.206 19.7224 102.05 20.4821Z" fill="white"/>
<path d="M102.178 9.40837C102.121 9.83241 101.88 10.0489 101.449 10.0489C100.933 9.99585 100.705 9.75732 100.762 9.32886C100.819 8.29085 100.677 7.30583 100.331 6.37382C99.9905 5.44182 99.4744 4.62907 98.7927 3.93558C98.0494 3.16259 97.1167 2.55745 95.9899 2.12016C94.8631 1.68286 93.599 1.42225 92.2024 1.34275C92.0035 1.34275 91.8331 1.27649 91.6863 1.14398C91.5443 1.01146 91.4875 0.852449 91.5159 0.662513C91.5159 0.476995 91.5869 0.322396 91.7289 0.203135C91.871 0.0838731 92.0414 0.0220337 92.2403 0.0220337C95.4928 0.181049 98.0352 1.19257 99.8627 3.05658C101.548 4.78808 102.32 6.90388 102.178 9.40837Z" fill="white"/>
<path d="M185.248 8.04778C185.433 6.38695 185.944 5.17225 187.677 4.16957C189.409 3.16688 191.095 3.05646 193.225 3.05646C196.317 3.05646 197.747 3.93104 198.135 4.13423C200.275 5.22525 201.302 6.93025 201.217 9.24481C201.16 9.64235 200.919 9.84554 200.488 9.84554C200.261 9.84554 200.081 9.77928 199.953 9.64677C199.825 9.51426 199.773 9.35524 199.801 9.16531C199.858 8.18029 199.631 7.31012 198.897 6.36045C198.168 5.40635 196.222 4.39484 193.05 4.37275C189.873 4.35067 188.657 4.89397 187.677 5.81273C186.697 6.72707 186.313 8.5425 187 10.1061C187.686 11.6698 189.39 12.6504 190.148 13.0612C190.906 13.4764 191.753 13.8651 192.695 14.2406L193.339 14.5188C194.452 14.9738 195.474 15.4023 196.402 15.8175C197.33 16.2327 198.121 16.6655 198.779 17.1161C199.522 17.571 200.048 18.0746 200.36 18.6356C200.758 19.276 200.857 19.943 200.658 20.6321C200.573 20.9501 200.341 21.1136 199.972 21.1136C199.688 21.0606 199.484 20.959 199.371 20.8132C199.257 20.6674 199.229 20.4996 199.285 20.3141C199.513 19.5146 199.044 18.7813 197.875 18.1188C196.705 17.4518 195.006 16.6523 192.78 15.7203L192.136 15.4818C191.336 15.1372 190.508 14.7574 189.651 14.3421C188.794 13.9314 188.036 13.419 187.383 12.805C185.821 11.471 185.106 9.88529 185.248 8.04778Z" fill="white"/>
<path d="M195.607 27.3373C195.607 27.5228 195.536 27.6774 195.394 27.7966C195.252 27.9159 195.095 27.9778 194.925 27.9778H194.882C193.429 27.8982 192.065 27.6067 190.797 27.0987C189.528 26.5908 188.434 25.8885 187.52 24.983C186.635 24.104 185.972 23.1189 185.532 22.0279C185.087 20.9369 184.898 19.7929 184.954 18.5914C185.011 18.1674 185.267 17.9509 185.726 17.9509C185.925 17.9774 186.091 18.0525 186.218 18.1718C186.346 18.291 186.398 18.4589 186.37 18.6709C186.285 20.747 187.014 22.5447 188.553 24.0642C189.353 24.8372 190.295 25.4468 191.379 25.9017C192.463 26.3567 193.647 26.6084 194.934 26.6615C195.162 26.6615 195.342 26.7277 195.469 26.8602C195.588 26.9927 195.64 27.1518 195.607 27.3373Z" fill="white"/>
<path d="M204.858 20.4821C204.702 21.2418 203.92 22.8452 202.14 23.8523C200.36 24.8594 197.297 24.961 196.203 24.9566C194.442 24.9478 192.525 24.3338 191.213 23.5034C189.902 22.673 189.433 21.8735 189.144 21.233C189.087 21.074 189.021 20.5793 189.518 20.3628C190.015 20.1464 190.323 20.4468 190.47 20.7118C190.697 21.2463 191.029 21.6835 191.455 22.0281C191.885 22.3726 192.368 22.6597 192.913 22.885C193.453 23.1103 195.015 23.5697 196.383 23.5697C197.751 23.5697 200.199 23.5917 201.728 22.5537C203.258 21.5157 203.617 20.2612 203.565 19.1702C203.513 18.0792 203.187 17.6463 202.846 17.2709C202.42 16.8159 201.733 16.33 200.791 15.8132C199.849 15.2964 198.552 14.6913 196.894 13.9978C195.668 13.4898 194.575 13.0128 193.618 12.5578C192.662 12.1073 191.857 11.6523 191.199 11.2018C189.514 10.0312 188.803 8.79003 189.059 7.48699C189.116 7.24846 189.343 6.86859 189.916 6.96577C190.489 7.06295 190.498 7.53999 190.475 7.72551C190.389 8.18047 190.517 8.62218 190.858 9.06389C191.199 9.50119 191.701 9.92964 192.359 10.3404C193.012 10.7512 193.793 11.1664 194.693 11.5772C195.593 11.988 196.525 12.3944 197.496 12.7963C199.295 13.5693 200.687 14.2363 201.672 14.7929C202.656 15.3538 203.39 15.8971 203.878 16.4316C204.446 17.0191 204.782 17.6021 204.881 18.1896C204.976 18.7815 205.014 19.7224 204.858 20.4821Z" fill="white"/>
<path d="M204.986 9.40837C204.929 9.83241 204.687 10.0489 204.257 10.0489C203.74 9.99585 203.513 9.75732 203.57 9.32886C203.627 8.29085 203.485 7.30583 203.139 6.37382C202.798 5.44182 202.282 4.62907 201.601 3.93558C200.857 3.16259 199.925 2.55745 198.798 2.12016C197.671 1.68286 196.407 1.42225 195.01 1.34275C194.811 1.34275 194.641 1.27649 194.494 1.14398C194.352 1.01146 194.295 0.852449 194.324 0.662513C194.324 0.476995 194.395 0.322396 194.537 0.203135C194.679 0.0838731 194.849 0.0220337 195.048 0.0220337C198.301 0.181049 200.843 1.19257 202.67 3.05658C204.356 4.78808 205.128 6.90388 204.986 9.40837Z" fill="white"/>
</g>
<defs>
<clipPath id="clip0">
<rect width="205" height="28" fill="white"/>
</clipPath>
</defs>
</svg>
