<svg width="26" height="26" viewBox="0 0 26 26" fill="none" xmlns="http://www.w3.org/2000/svg">
<path fill-rule="evenodd" clip-rule="evenodd" d="M13 26C20.1797 26 26 20.1797 26 13C26 5.8203 20.1797 0 13 0C5.8203 0 0 5.8203 0 13C0 20.1797 5.8203 26 13 26ZM6.38184 9L13.0003 13.8438L19.6188 9H6.38184ZM13.1792 14.3534C13.1274 14.3913 13.0638 14.4102 13 14.4102C12.9362 14.4102 12.8726 14.3913 12.8208 14.3534L6 9.36133V17.1152C6 17.2512 6.12544 17.3611 6.28 17.3611H19.72C19.8748 17.3611 20 17.2512 20 17.1152V9.36157L13.1792 14.3534Z" fill="url(#paint0_linear)"/>
<defs>
<linearGradient id="paint0_linear" x1="-3.76679e-07" y1="2.12245" x2="29.4305" y2="7.097" gradientUnits="userSpaceOnUse">
<stop stop-color="#225AA4"/>
<stop offset="0.270517" stop-color="#2D4F8A"/>
<stop offset="0.794371" stop-color="#EB3626"/>
<stop offset="1" stop-color="#EB3423"/>
</linearGradient>
</defs>
</svg>
