<svg width="26" height="26" viewBox="0 0 26 26" fill="none" xmlns="http://www.w3.org/2000/svg">
<mask id="path-1-inside-1" fill="white">
<path fill-rule="evenodd" clip-rule="evenodd" d="M26 13C26 20.1797 20.1797 26 13 26C5.8203 26 0 20.1797 0 13C0 5.8203 5.8203 0 13 0C20.1797 0 26 5.8203 26 13ZM6.38171 9L13.0002 13.8438L19.6187 9H6.38171ZM13 14.4102C13.0638 14.4102 13.1274 14.3913 13.1792 14.3534L20 9.36157V17.1152C20 17.2512 19.8748 17.3611 19.72 17.3611H6.28C6.12544 17.3611 6 17.2512 6 17.1152V9.36133L12.8208 14.3534C12.8726 14.3913 12.9362 14.4102 13 14.4102Z"/>
</mask>
<path d="M13.0002 13.8438L12.4096 14.6508L13.0002 15.083L13.5908 14.6508L13.0002 13.8438ZM6.38171 9V8H3.32212L5.79112 9.80697L6.38171 9ZM19.6187 9L20.2093 9.80697L22.6783 8H19.6187V9ZM13.1792 14.3534L13.7694 15.1607L13.7698 15.1604L13.1792 14.3534ZM20 9.36157H21V7.39051L19.4094 8.5546L20 9.36157ZM6 9.36133L6.59061 8.55437L5 7.39021V9.36133H6ZM12.8208 14.3534L12.2302 15.1604L12.2306 15.1607L12.8208 14.3534ZM13 27C20.732 27 27 20.732 27 13H25C25 19.6274 19.6274 25 13 25V27ZM-1 13C-1 20.732 5.26801 27 13 27V25C6.37258 25 1 19.6274 1 13H-1ZM13 -1C5.26801 -1 -1 5.26801 -1 13H1C1 6.37258 6.37258 1 13 1V-1ZM27 13C27 5.26801 20.732 -1 13 -1V1C19.6274 1 25 6.37258 25 13H27ZM13.5908 13.0368L6.97231 8.19303L5.79112 9.80697L12.4096 14.6508L13.5908 13.0368ZM19.0281 8.19303L12.4096 13.0368L13.5908 14.6508L20.2093 9.80697L19.0281 8.19303ZM6.38171 10H19.6187V8H6.38171V10ZM12.589 13.5462C12.7232 13.4481 12.8706 13.4102 13 13.4102V15.4102C13.2571 15.4102 13.5316 15.3345 13.7694 15.1607L12.589 13.5462ZM19.4094 8.5546L12.5886 13.5465L13.7698 15.1604L20.5906 10.1685L19.4094 8.5546ZM21 17.1152V9.36157H19V17.1152H21ZM19.72 18.3611C20.3012 18.3611 21 17.9215 21 17.1152H19C19 16.5809 19.4485 16.3611 19.72 16.3611V18.3611ZM6.28 18.3611H19.72V16.3611H6.28V18.3611ZM5 17.1152C5 17.9221 5.69979 18.3611 6.28 18.3611V16.3611C6.55109 16.3611 7 16.5803 7 17.1152H5ZM5 9.36133V17.1152H7V9.36133H5ZM13.4114 13.5465L6.59061 8.55437L5.40939 10.1683L12.2302 15.1604L13.4114 13.5465ZM13 13.4102C13.1294 13.4102 13.2768 13.4481 13.411 13.5462L12.2306 15.1607C12.4684 15.3345 12.7429 15.4102 13 15.4102V13.4102Z" fill="url(#paint0_linear)" mask="url(#path-1-inside-1)"/>
<defs>
<linearGradient id="paint0_linear" x1="1.36564" y1="9.76891" x2="21.0803" y2="5.97013" gradientUnits="userSpaceOnUse">
<stop stop-color="#00009A"/>
<stop offset="0.794371" stop-color="#EB3626"/>
<stop offset="1" stop-color="#EB3423"/>
</linearGradient>
</defs>
</svg>
