<svg width="26" height="26" viewBox="0 0 26 26" fill="none" xmlns="http://www.w3.org/2000/svg">
<path d="M19.1776 20.3631L19.1774 20.3634C19.0718 20.4688 18.9437 20.5399 18.8467 20.5862C18.7426 20.6359 18.6342 20.6755 18.5409 20.7057C18.4463 20.7362 18.3588 20.7597 18.2931 20.7757C18.2602 20.7838 18.2313 20.7903 18.2082 20.7951C18.197 20.7975 18.1852 20.7998 18.1739 20.8018C18.1686 20.8028 18.1607 20.8041 18.1516 20.8055C18.1472 20.8061 18.1399 20.8071 18.131 20.8081C18.1262 20.8086 18.1065 20.8107 18.081 20.811C18.0795 20.811 18.0781 20.811 18.0766 20.811V20.311C14.7837 20.3397 11.6131 19.0463 9.28356 16.7165L19.1776 20.3631ZM19.1776 20.3631L20.2177 19.3228C20.2179 19.3227 20.2181 19.3225 20.2182 19.3223C20.4899 19.0516 20.6644 18.6827 20.7494 18.3217C20.8345 17.9607 20.8428 17.5531 20.7224 17.19C20.7223 17.1897 20.7222 17.1894 20.7221 17.1892L20.6495 16.9685L20.6486 16.9657C20.5302 16.6123 20.2904 16.2845 20.0204 16.0296C19.7504 15.7747 19.4094 15.5541 19.0501 15.4554L19.0496 15.4552L17.1282 14.9298L17.1269 14.9294C16.7627 14.8309 16.3558 14.8539 15.9953 14.9478C15.6351 15.0417 15.2666 15.2205 14.9966 15.4905L14.9965 15.4906L14.5114 15.9761C12.3787 15.302 10.7002 13.623 10.0275 11.4908L10.5131 11.0052L10.5131 11.0051C10.7824 10.7358 10.9607 10.3674 11.0542 10.0074C11.1478 9.64707 11.1708 9.24 11.0722 8.8754L11.0719 8.87449L10.5485 6.95338C10.5485 6.95333 10.5485 6.95329 10.5485 6.95325C10.4506 6.59244 10.2288 6.25084 9.9733 5.98103C9.71768 5.71108 9.38912 5.47159 9.03609 5.35325L9.03538 5.35301M19.1776 20.3631L9.03538 5.35301M9.03538 5.35301L8.81685 5.28012L9.03538 5.35301ZM0.5 13.0001C0.5 6.09698 6.09698 0.5 13.0001 0.5C19.9031 0.5 25.5001 6.09698 25.5 13C25.5 19.903 19.9031 25.5001 13.0001 25.5001C6.09698 25.5001 0.5 19.903 0.5 13.0001Z" stroke="url(#paint0_linear)"/>
<defs>
<linearGradient id="paint0_linear" x1="1.36564" y1="9.76895" x2="21.0803" y2="5.97018" gradientUnits="userSpaceOnUse">
<stop stop-color="#00009A"/>
<stop offset="0.794371" stop-color="#EB3626"/>
<stop offset="1" stop-color="#EB3423"/>
</linearGradient>
</defs>
</svg>
