<svg width="26" height="26" viewBox="0 0 26 26" fill="none" xmlns="http://www.w3.org/2000/svg">
<path fill-rule="evenodd" clip-rule="evenodd" d="M13 26C20.1797 26 26 20.1797 26 13C26 5.8203 20.1797 0 13 0C5.8203 0 0 5.8203 0 13C0 20.1797 5.8203 26 13 26ZM16.5816 15.0094C17.1562 14.4385 17.8781 14.4385 18.4563 15.0094C19.1598 15.7092 19.8633 16.409 20.5631 17.1125C21.1487 17.7018 21.145 18.4237 20.5557 19.0204C20.4194 19.158 20.28 19.2934 20.1406 19.4289C19.8732 19.6887 19.6056 19.9488 19.3587 20.2248C18.8099 20.8398 18.1248 21.0387 17.3366 20.9945C16.1912 20.9319 15.1378 20.5526 14.1213 20.059C11.8635 18.9614 9.93351 17.4403 8.31661 15.5177C7.11959 14.096 6.1325 12.5454 5.48427 10.7996C5.16752 9.95614 4.94285 9.0906 5.01283 8.17349C5.05702 7.60997 5.26696 7.12748 5.68316 6.73338C5.95272 6.47708 6.213 6.21415 6.47355 5.95095C6.64732 5.77541 6.82121 5.59975 6.99804 5.42587C7.57261 4.85866 8.29451 4.85866 8.87277 5.42218C9.11094 5.65544 9.34583 5.89197 9.58073 6.1285C9.69818 6.24678 9.81564 6.36506 9.93351 6.48293C10.1048 6.65605 10.2761 6.82734 10.4474 6.99862C10.6186 7.16987 10.7899 7.34112 10.9611 7.51421C11.5651 8.12193 11.5651 8.82909 10.9648 9.43313C10.9029 9.49552 10.8411 9.55792 10.7794 9.62028C10.411 9.9923 10.0437 10.3632 9.66833 10.7259C9.55415 10.8401 9.5431 10.9322 9.60203 11.0721C9.893 11.7646 10.3092 12.3796 10.777 12.9542C11.7198 14.1107 12.7843 15.1383 14.055 15.9376C14.2195 16.0399 14.3948 16.126 14.5703 16.2123C14.6855 16.2689 14.8007 16.3256 14.9131 16.3869C15.0568 16.4679 15.1562 16.4422 15.2741 16.3206C15.705 15.8786 16.1433 15.444 16.5816 15.0094Z" fill="url(#paint0_linear)"/>
<defs>
<linearGradient id="paint0_linear" x1="1.36564" y1="9.76891" x2="21.0803" y2="5.97013" gradientUnits="userSpaceOnUse">
<stop stop-color="#00009A"/>
<stop offset="0.794371" stop-color="#EB3626"/>
<stop offset="1" stop-color="#EB3423"/>
</linearGradient>
</defs>
</svg>
