<svg width="26" height="26" viewBox="0 0 26 26" fill="none" xmlns="http://www.w3.org/2000/svg">
<circle cx="13" cy="13" r="12.5" stroke="url(#paint0_linear)"/>
<path d="M17.9333 14.1326C17.4634 13.6688 16.8769 13.6688 16.41 14.1326C16.0539 14.4858 15.6978 14.8389 15.3477 15.198C15.2519 15.2968 15.1711 15.3177 15.0544 15.2519C14.824 15.1262 14.5786 15.0244 14.3572 14.8868C13.3247 14.2374 12.4599 13.4025 11.6938 12.4628C11.3137 11.996 10.9756 11.4962 10.7391 10.9336C10.6913 10.8199 10.7002 10.7451 10.793 10.6523C11.1491 10.3082 11.4963 9.95504 11.8464 9.60192C12.3342 9.11114 12.3342 8.53657 11.8434 8.0428C11.5651 7.7615 11.2868 7.48618 11.0085 7.20488C10.7212 6.91759 10.4369 6.62732 10.1466 6.34302C9.67679 5.88516 9.09025 5.88516 8.62341 6.34602C8.2643 6.69914 7.92016 7.06124 7.55507 7.40837C7.21691 7.72858 7.04633 8.1206 7.01042 8.57846C6.95356 9.32361 7.13611 10.0269 7.39347 10.7122C7.92016 12.1306 8.72217 13.3905 9.69475 14.5456C11.0085 16.1077 12.5766 17.3437 14.411 18.2354C15.237 18.6364 16.0928 18.9447 17.0235 18.9956C17.6639 19.0315 18.2205 18.8699 18.6664 18.3701C18.9717 18.029 19.3158 17.7177 19.639 17.3915C20.1178 16.9068 20.1208 16.3202 19.645 15.8414C19.0764 15.2698 18.5048 14.7012 17.9333 14.1326Z" stroke="url(#paint1_linear)"/>
<defs>
<linearGradient id="paint0_linear" x1="1.36564" y1="9.76891" x2="21.0803" y2="5.97013" gradientUnits="userSpaceOnUse">
<stop stop-color="#00009A"/>
<stop offset="0.794371" stop-color="#EB3626"/>
<stop offset="1" stop-color="#EB3423"/>
</linearGradient>
<linearGradient id="paint1_linear" x1="7.68282" y1="10.8846" x2="17.5402" y2="8.98524" gradientUnits="userSpaceOnUse">
<stop stop-color="#00009A"/>
<stop offset="0.794371" stop-color="#EB3626"/>
<stop offset="1" stop-color="#EB3423"/>
</linearGradient>
</defs>
</svg>
