<svg width="25" height="26" viewBox="0 0 25 26" fill="none" xmlns="http://www.w3.org/2000/svg">
    <path d="M24.8511 9.67387C24.6527 9.47693 24.3318 9.47693 24.1333 9.67387L10.278 23.4212C9.25667 24.4346 7.89368 24.9921 6.43881 24.9921C4.98343 24.9921 3.61993 24.4346 2.59908 23.4212C1.57823 22.4078 1.01577 21.0554 1.01577 19.6114C1.01577 18.1678 1.57772 16.815 2.59908 15.8021L16.4539 2.05426C17.9245 0.595621 20.2332 0.684771 21.8241 2.26228C23.4145 3.8403 23.5049 6.13152 22.0343 7.59066L9.01859 20.5054C8.29116 21.2272 7.10634 21.2277 6.37738 20.5054C5.64944 19.7826 5.64944 18.6071 6.37738 17.8848L15.1944 9.13645C15.3929 8.93951 15.3929 8.62119 15.1944 8.42425C14.996 8.22731 14.6751 8.22731 14.4767 8.42425L5.65959 17.1721C4.53569 18.2872 4.53569 20.1015 5.65959 21.2171C6.78451 22.3332 8.6135 22.3312 9.73639 21.2171L22.7526 8.30236C24.6323 6.43674 24.542 3.53356 22.5424 1.54958C20.5434 -0.433892 17.6169 -0.52405 15.7366 1.34156L1.88078 15.0894C0.667536 16.2927 0 17.8984 0 19.6114C0 21.3244 0.667536 22.9306 1.88078 24.1339C3.09351 25.3377 4.71184 26 6.43881 26C8.16476 26 9.7836 25.3377 10.9963 24.1339L24.8511 10.3861C25.0496 10.1891 25.0496 9.8703 24.8511 9.67387Z" fill="url(#paint0_linear)"/>
    <defs>
        <linearGradient id="paint0_linear" x1="1.31312" y1="9.76891" x2="20.3209" y2="6.24721" gradientUnits="userSpaceOnUse">
            <stop stop-color="#00009A"/>
            <stop offset="0.794371" stop-color="#EB3626"/>
            <stop offset="1" stop-color="#EB3423"/>
        </linearGradient>
    </defs>
</svg>
